<?xml version="1.0" encoding="UTF-8"?>
<!-- Generated by Pixelmator Pro 3.3.8 -->
<svg width="1024" height="1024" viewBox="0 0 1024 1024" xmlns="http://www.w3.org/2000/svg">
    <filter id="filter1" x="0" y="0" width="1024" height="1024" filterUnits="userSpaceOnUse" primitiveUnits="userSpaceOnUse" color-interpolation-filters="sRGB">
        <feGaussianBlur stdDeviation="10"/>
    </filter>
    <path id="ombra" fill="#000000" fill-rule="evenodd" stroke="none" opacity="0.3" filter="url(#filter1)" d="M 100 627.099976 C 100 740.057373 100 796.536072 123.715744 838.883545 C 140.4767 868.812378 165.187607 893.523315 195.116455 910.284302 C 237.463959 934 293.942627 934 406.899994 934 L 617.099976 934 C 730.057312 934 786.536011 934 828.883545 910.284241 C 858.812378 893.523315 883.523315 868.812378 900.284241 838.883545 C 924 796.536011 924 740.057373 924 627.099976 L 924 416.900024 C 924 303.942688 924 247.463989 900.284241 205.116455 C 883.523254 175.187622 858.812378 150.476685 828.883545 133.715759 C 786.536011 110 730.057373 110 617.099976 110 L 406.899994 110 C 293.942627 110 237.463943 110 195.11644 133.715759 C 165.187592 150.476746 140.476685 175.187622 123.715729 205.116455 C 99.999992 247.463989 99.999992 303.942627 99.999992 416.900024 Z"/>
    <linearGradient id="linearGradient1" x1="511.077078" y1="101.022282" x2="511.077078" y2="925.022282" gradientUnits="userSpaceOnUse">
        <stop offset="0" stop-color="#fdfdfd" stop-opacity="1"/>
        <stop offset="1" stop-color="#cfcfcf" stop-opacity="1"/>
    </linearGradient>
    <path id="canvas-copy" fill="url(#linearGradient1)" fill-rule="evenodd" stroke="none" d="M 99 619.75 C 99 732.100098 99 788.275085 122.588242 830.394897 C 139.259079 860.162842 163.837128 884.740906 193.605072 901.411743 C 235.724899 925 291.899933 925 404.25 925 L 617.75 925 C 730.100037 925 786.275085 925 828.394958 901.411743 C 858.162903 884.740906 882.740967 860.162842 899.411804 830.394897 C 923.000061 788.275085 923.000061 732.100098 923.000061 619.75 L 923 406.25 C 923 293.899963 923 237.724915 899.411743 195.605042 C 882.740906 165.837097 858.162842 141.259033 828.394897 124.588196 C 786.275085 100.999939 730.100037 100.999939 617.749939 100.999939 L 404.25 101 C 291.899933 101 235.724899 101 193.605072 124.588257 C 163.837128 141.259094 139.259094 165.837158 122.588242 195.605103 C 99 237.724915 99 293.899963 99 406.250061 Z"/>
    <linearGradient id="linearGradient2" x1="186" y1="512" x2="834" y2="512" gradientUnits="userSpaceOnUse">
        <stop offset="0.000463" stop-color="#1ee5ce" stop-opacity="1"/>
        <stop offset="0.998778" stop-color="#007c77" stop-opacity="1"/>
    </linearGradient>
    <path id="Ellipse" fill="none" stroke="url(#linearGradient2)" stroke-width="60" d="M 834 512 C 834 333.059753 688.940247 188 510 188 C 331.059753 188 186 333.059753 186 512 C 186 690.940247 331.059753 836 510 836 C 688.940247 836 834 690.940247 834 512 Z"/>
    <linearGradient id="linearGradient3" x1="313" y1="512" x2="711" y2="512" gradientUnits="userSpaceOnUse">
        <stop offset="0.000463" stop-color="#1ee5ce" stop-opacity="1"/>
        <stop offset="0.998778" stop-color="#007c77" stop-opacity="1"/>
    </linearGradient>
    <path id="path1" fill="none" stroke="url(#linearGradient3)" stroke-width="46" d="M 711 512 C 711 402.095337 621.904663 313 512 313 C 402.095337 313 313 402.095337 313 512 C 313 621.904663 402.095337 711 512 711 C 621.904663 711 711 621.904663 711 512 Z"/>
    <linearGradient id="linearGradient4" x1="2023" y1="1517.5" x2="2280" y2="1517.5" gradientUnits="userSpaceOnUse">
        <stop offset="0.000463" stop-color="#1ee5ce" stop-opacity="1"/>
        <stop offset="0.998778" stop-color="#007c77" stop-opacity="1"/>
    </linearGradient>
    <path id="path2" fill="none" stroke="url(#linearGradient4)" stroke-width="46" d="M 2280 1517.5 C 2280 1446.531372 2222.468506 1389 2151.5 1389 C 2080.531494 1389 2023 1446.531372 2023 1517.5 C 2023 1588.468506 2080.531494 1646 2151.5 1646 C 2222.468506 1646 2280 1588.468506 2280 1517.5 Z"/>
</svg>
