<?xml version="1.0" encoding="UTF-8"?>
<!-- Generated by Pixelmator Pro 3.3.8 -->
<svg width="716" height="716" viewBox="0 0 716 716" xmlns="http://www.w3.org/2000/svg">
    <filter id="filter1" x="0" y="0" width="716" height="716" filterUnits="userSpaceOnUse" primitiveUnits="userSpaceOnUse" color-interpolation-filters="sRGB">
        <feGaussianBlur stdDeviation="10"/>
    </filter>
    <path id="ombra" fill="#000000" fill-rule="evenodd" stroke="none" opacity="0.3" visibility="hidden" filter="url(#filter1)" d="M -52 475.100006 C -52 588.057373 -52 644.536072 -28.284258 686.883545 C -11.5233 716.812378 13.187607 741.523315 43.116447 758.284241 C 85.463959 782 141.942642 782 254.899994 782 L 465.099976 782 C 578.057312 782 634.536011 782 676.883545 758.284241 C 706.812378 741.523315 731.523315 716.812378 748.284241 686.883545 C 772 644.536011 772 588.057373 772 475.100006 L 772 264.900024 C 772 151.942688 772 95.463989 748.284241 53.116455 C 731.523254 23.187622 706.812378 -1.523315 676.883545 -18.284241 C 634.536011 -42 578.057373 -42 465.099976 -42 L 254.899994 -42 C 141.942627 -42 85.463943 -42 43.11644 -18.284241 C 13.187599 -1.523254 -11.523308 23.187622 -28.284267 53.116455 C -52.000011 95.463989 -52.000011 151.942627 -52.000011 264.900024 Z"/>
    <linearGradient id="linearGradient1" x1="360.077078" y1="-51.977718" x2="360.077078" y2="772.022282" gradientUnits="userSpaceOnUse">
        <stop offset="0" stop-color="#fdfdfd" stop-opacity="1"/>
        <stop offset="1" stop-color="#cfcfcf" stop-opacity="1"/>
    </linearGradient>
    <path id="canvas" fill="url(#linearGradient1)" fill-rule="evenodd" stroke="none" visibility="hidden" d="M -52 466.75 C -52 579.100098 -52 635.275085 -28.411762 677.394897 C -11.740917 707.162842 12.837135 731.740906 42.605072 748.411743 C 84.724899 772 140.899933 772 253.25 772 L 466.75 772 C 579.100037 772 635.275085 772 677.394958 748.411743 C 707.162903 731.740906 731.740967 707.162842 748.411804 677.394897 C 772.000061 635.275085 772.000061 579.100098 772.000061 466.75 L 772 253.25 C 772 140.899963 772 84.724915 748.411743 42.605042 C 731.740906 12.837097 707.162842 -11.740967 677.394897 -28.411804 C 635.275085 -52.000061 579.100037 -52.000061 466.749939 -52.000061 L 253.25 -52 C 140.899933 -52 84.724899 -52 42.605072 -28.411743 C 12.837135 -11.740906 -11.740913 12.837158 -28.41176 42.605103 C -52 84.724915 -52 140.899963 -52 253.250061 Z"/>
    <linearGradient id="linearGradient2" x1="34" y1="360" x2="682" y2="360" gradientUnits="userSpaceOnUse">
        <stop offset="0.000463" stop-color="#1ee5ce" stop-opacity="1"/>
        <stop offset="0.998778" stop-color="#007c77" stop-opacity="1"/>
    </linearGradient>
    <path id="Ellipse" fill="none" stroke="url(#linearGradient2)" stroke-width="60" d="M 682 360 C 682 181.059753 536.940247 36 358 36 C 179.059738 36 34 181.059753 34 360 C 34 538.940247 179.059738 684 358 684 C 536.940247 684 682 538.940247 682 360 Z"/>
    <linearGradient id="linearGradient3" x1="161" y1="360" x2="559" y2="360" gradientUnits="userSpaceOnUse">
        <stop offset="0.000463" stop-color="#1ee5ce" stop-opacity="1"/>
        <stop offset="0.998778" stop-color="#007c77" stop-opacity="1"/>
    </linearGradient>
    <path id="path1" fill="none" stroke="url(#linearGradient3)" stroke-width="46" d="M 559 360 C 559 250.095337 469.904663 161 360 161 C 250.095337 161 161 250.095337 161 360 C 161 469.904663 250.095337 559 360 559 C 469.904663 559 559 469.904663 559 360 Z"/>
    <linearGradient id="linearGradient4" x1="1871" y1="1365.5" x2="2128" y2="1365.5" gradientUnits="userSpaceOnUse">
        <stop offset="0.000463" stop-color="#1ee5ce" stop-opacity="1"/>
        <stop offset="0.998778" stop-color="#007c77" stop-opacity="1"/>
    </linearGradient>
    <path id="path2" fill="none" stroke="url(#linearGradient4)" stroke-width="46" d="M 2128 1365.5 C 2128 1294.531372 2070.468506 1237 1999.5 1237 C 1928.531372 1237 1871 1294.531372 1871 1365.5 C 1871 1436.468506 1928.531372 1494 1999.5 1494 C 2070.468506 1494 2128 1436.468506 2128 1365.5 Z"/>
</svg>
